<svg width="20" height="20" viewBox="0 0 20 20" fill="none" xmlns="http://www.w3.org/2000/svg">
<path d="M16.1173 12.0753L15.2839 10.692C15.1089 10.3837 14.9506 9.80033 14.9506 9.45866V7.35033C14.9506 5.39199 13.8006 3.70033 12.1423 2.90866C11.7089 2.14199 10.9089 1.66699 9.99227 1.66699C9.08394 1.66699 8.26727 2.15866 7.83394 2.93366C6.20894 3.74199 5.08394 5.41699 5.08394 7.35033V9.45866C5.08394 9.80033 4.9256 10.3837 4.7506 10.6837L3.90894 12.0753C3.5756 12.6337 3.5006 13.2503 3.70894 13.817C3.90894 14.3753 4.38394 14.8087 5.0006 15.017C6.61727 15.567 8.31727 15.8337 10.0173 15.8337C11.7173 15.8337 13.4173 15.567 15.0339 15.0253C15.6173 14.8337 16.0673 14.392 16.2839 13.817C16.5006 13.242 16.4423 12.6087 16.1173 12.0753Z" fill="white"/>
<path d="M12.3587 16.6743C12.0087 17.641 11.0837 18.3327 10.0004 18.3327C9.34206 18.3327 8.69206 18.066 8.23372 17.591C7.96706 17.341 7.76706 17.0077 7.65039 16.666C7.75872 16.6827 7.86706 16.691 7.98372 16.7077C8.17539 16.7327 8.37539 16.7577 8.57539 16.7743C9.05039 16.816 9.53372 16.841 10.0171 16.841C10.4921 16.841 10.9671 16.816 11.4337 16.7743C11.6087 16.7577 11.7837 16.7493 11.9504 16.7243C12.0837 16.7077 12.2171 16.691 12.3587 16.6743Z" fill="white"/>
</svg>
