<svg width="101" height="101" viewBox="0 0 101 101" fill="none" xmlns="http://www.w3.org/2000/svg">
<path d="M66.0507 50.4107H65.1201C65.3072 50.406 65.4988 50.4023 65.6896 50.4023C65.8118 50.4023 65.9331 50.4023 66.0507 50.4107Z" fill="#3F3A3B"/>
<path d="M50.4687 49.9373C58.6946 49.9373 65.3631 43.2689 65.3631 35.0429C65.3631 26.8169 58.6946 20.1484 50.4687 20.1484C42.2427 20.1484 35.5742 26.8169 35.5742 35.0429C35.5742 43.2689 42.2427 49.9373 50.4687 49.9373Z" fill="#939598"/>
<path d="M81.4187 65.188C81.4057 65.0075 81.3881 64.8316 81.3668 64.6556C81.3492 64.4751 81.3233 64.2992 81.2974 64.1232C80.2279 57.1029 74.0344 51.6834 66.4937 51.5195H65.5631C64.9937 51.5408 64.4372 51.5908 63.8844 51.6705C63.6187 51.7084 63.3585 51.7547 63.0974 51.8047C63.0455 51.813 62.9891 51.826 62.9363 51.838C62.7881 51.8677 62.6363 51.901 62.4881 51.9343C62.4529 51.9427 62.4233 51.951 62.3881 51.9593C62.1928 52.0056 61.9965 52.0556 61.8011 52.1103C58.1566 52.9195 54.2604 53.3464 50.3678 53.3464C47.0668 53.3464 43.84 53.0362 40.7354 52.4492C40.3613 52.3779 39.9918 52.2816 39.6261 52.1853C39.0696 52.039 38.5039 51.9214 37.9298 51.8371H37.9252C37.2205 51.7362 36.5029 51.6779 35.7724 51.6695H35.6076C35.5335 51.6695 35.4557 51.6695 35.3816 51.6742C28.2928 51.7705 22.3696 56.5362 20.7826 62.9242C20.5085 64.0269 20.3604 65.1788 20.3604 66.3649C20.3604 67.551 20.5039 68.7038 20.7826 69.8056C22.3613 76.1473 28.1974 80.8834 35.2159 81.0556H66.5705C71.115 80.9297 75.1594 78.8973 77.877 75.7621C77.9983 75.6242 78.1159 75.4816 78.2289 75.339C78.3678 75.1714 78.5029 74.9955 78.6335 74.8195C78.6511 74.8029 78.6641 74.7816 78.677 74.7649C78.8946 74.463 79.1029 74.1575 79.2992 73.8427C79.3252 73.801 79.3511 73.7584 79.3779 73.7168C79.5863 73.3732 79.7863 73.0214 79.965 72.6603C80.0566 72.476 80.1437 72.2918 80.2298 72.1029C80.5344 71.4158 80.7863 70.7075 80.9826 69.9732C81.0742 69.6214 81.1567 69.2649 81.2215 68.9047C81.265 68.6658 81.3039 68.4223 81.3391 68.1797C81.4178 67.5593 81.4613 66.9306 81.4613 66.289C81.4613 65.9158 81.4483 65.551 81.4178 65.1862L81.4187 65.188Z" fill="#BCBEC0"/>
</svg>
