<svg width="22" height="20" viewBox="0 0 22 20" fill="none" xmlns="http://www.w3.org/2000/svg">
<g clip-path="url(#clip0_865_48552)">
<path d="M5.0924 15.3797C5.0924 14.2445 4.17213 13.3242 3.03692 13.3242C1.90171 13.3242 0.981445 14.2445 0.981445 15.3797V17.9454C0.981445 19.0806 1.90171 20.0009 3.03692 20.0009C4.17213 20.0009 5.0924 19.0806 5.0924 17.9454V15.3797Z" fill="#868E96"/>
<path d="M8.23216 9.22168H7.99403C6.92458 9.22168 6.05762 10.0886 6.05762 11.1581V18.0638C6.05762 19.1332 6.92458 20.0002 7.99403 20.0002H8.23216C9.30161 20.0002 10.1686 19.1332 10.1686 18.0638V11.1581C10.1686 10.0886 9.30161 9.22168 8.23216 9.22168Z" fill="#868E96"/>
<path d="M13.6061 11.3281H13.3994C12.3213 11.3281 11.4473 12.2021 11.4473 13.2802V18.048C11.4473 19.1261 12.3213 20.0001 13.3994 20.0001H13.6061C14.6842 20.0001 15.5582 19.1261 15.5582 18.048V13.2802C15.5582 12.2021 14.6842 11.3281 13.6061 11.3281Z" fill="#868E96"/>
<path d="M19.173 3.73438H18.7622C17.7404 3.73438 16.9121 4.56267 16.9121 5.58443V18.1502C16.9121 19.1719 17.7404 20.0002 18.7622 20.0002H19.173C20.1948 20.0002 21.0231 19.1719 21.0231 18.1502V5.58443C21.0231 4.56267 20.1948 3.73438 19.173 3.73438Z" fill="#868E96"/>
<path d="M1.55227 9.13556C1.433 9.13563 1.31667 9.09858 1.21942 9.02954C1.12217 8.9605 1.04882 8.86289 1.00956 8.75028C0.970294 8.63766 0.96706 8.51561 1.0003 8.40108C1.03355 8.28654 1.10162 8.18519 1.19508 8.1111L5.39238 4.7891C5.64915 4.5921 5.96102 4.48016 6.28446 4.4689C6.60791 4.45764 6.9268 4.54763 7.19665 4.7263L9.42875 6.21524C9.57472 6.31271 9.74599 6.36539 9.9215 6.36678C10.097 6.36818 10.2691 6.31822 10.4166 6.22309L18.4488 0.116856C18.5702 0.0247261 18.7233 -0.0153907 18.8743 0.00534303C19.0254 0.0260768 19.162 0.105959 19.2541 0.227411C19.3462 0.348863 19.3863 0.501947 19.3656 0.652972C19.3449 0.803997 19.265 0.940597 19.1435 1.03273L11.0943 7.15074L11.0655 7.17167C10.7291 7.3969 10.3334 7.51715 9.92856 7.51715C9.52371 7.51715 9.12798 7.3969 8.79157 7.17167L6.55946 5.68403C6.4905 5.63774 6.40881 5.61413 6.32578 5.61647C6.24276 5.61882 6.16253 5.64702 6.09629 5.69713L1.90946 9.01389C1.80735 9.09324 1.68159 9.13608 1.55227 9.13556Z" fill="#868E96"/>
</g>
<defs>
<clipPath id="clip0_865_48552">
<rect width="20.0458" height="20" fill="white" transform="translate(0.977539)"/>
</clipPath>
</defs>
</svg>
