<svg width="16" height="16" viewBox="0 0 16 16" fill="none" xmlns="http://www.w3.org/2000/svg">
<path fill-rule="evenodd" clip-rule="evenodd" d="M14.9999 14.2949L11.2249 10.4999C13.0996 8.23798 12.8656 4.9021 10.6936 2.92394C8.52165 0.945788 5.17849 1.02382 3.10116 3.10116C1.02382 5.17849 0.945788 8.52165 2.92394 10.6936C4.9021 12.8656 8.23798 13.0996 10.4999 11.2249L14.2949 14.9999L14.9999 14.2949ZM2.4999 6.9999C2.4999 4.51462 4.51462 2.4999 6.9999 2.4999C9.48518 2.4999 11.4999 4.51462 11.4999 6.9999C11.4999 9.48518 9.48518 11.4999 6.9999 11.4999C4.51462 11.4999 2.4999 9.48518 2.4999 6.9999Z" fill="#9E9E9E"/>
</svg>
