<svg width="48" height="49" viewBox="0 0 48 49" fill="none" xmlns="http://www.w3.org/2000/svg">
<path d="M9.54258 30.2314C9.5417 30.2368 9.54036 30.2421 9.53903 30.2474C9.52347 30.3106 9.50836 30.3741 9.49414 30.4381C9.51725 30.3292 9.53503 30.259 9.54258 30.2314Z" fill="#BCBEC0"/>
<path d="M31.2213 24.2403H30.7773C30.8667 24.2381 30.9578 24.2363 31.0489 24.2363C31.1071 24.2363 31.1649 24.2363 31.2209 24.2403H31.2213Z" fill="#3F3A3B"/>
<path d="M23.788 24.0154C27.7121 24.0154 30.8933 20.8342 30.8933 16.91C30.8933 12.9859 27.7121 9.80469 23.788 9.80469C19.8638 9.80469 16.6826 12.9859 16.6826 16.91C16.6826 20.8342 19.8638 24.0154 23.788 24.0154Z" fill="#BCBEC0"/>
<path d="M38.5533 31.2905C38.5471 31.2047 38.5387 31.1207 38.5284 31.0367C38.52 30.951 38.5076 30.867 38.4951 30.783C37.9849 27.4336 35.0307 24.8483 31.4333 24.7705H30.9893C30.7178 24.7803 30.452 24.8043 30.1884 24.8425C30.0618 24.8603 29.9373 24.8825 29.8129 24.9065C29.788 24.9105 29.7609 24.9163 29.736 24.9225C29.6653 24.9363 29.5929 24.9523 29.5222 24.9683C29.5058 24.9723 29.4911 24.9763 29.4747 24.9803C29.3813 25.0021 29.288 25.0261 29.1947 25.0523C27.456 25.4381 25.5973 25.6421 23.7404 25.6421C22.1658 25.6421 20.6267 25.4941 19.1453 25.2141C18.9671 25.1803 18.7907 25.1341 18.6164 25.0883C18.3511 25.0185 18.0813 24.9625 17.8076 24.9225H17.8053C17.4693 24.8745 17.1271 24.8465 16.7782 24.8425H16.6996C16.6644 24.8425 16.6271 24.8425 16.5916 24.8447C13.2098 24.8905 10.3844 27.1643 9.62711 30.2114C9.49645 30.7372 9.42578 31.287 9.42578 31.8532C9.42578 32.4194 9.49423 32.9687 9.62711 33.495C10.38 36.5203 13.1644 38.7794 16.5129 38.8616H31.4707C33.6387 38.8016 35.568 37.8318 36.8644 36.3363C36.9227 36.2705 36.9787 36.2025 37.0324 36.1345C37.0987 36.0545 37.1631 35.9705 37.2253 35.8865C37.2338 35.8785 37.24 35.8687 37.2462 35.8607C37.3498 35.7167 37.4493 35.571 37.5431 35.4207C37.5556 35.4007 37.568 35.3807 37.5804 35.3607C37.68 35.1967 37.7756 35.0287 37.8604 34.8567C37.904 34.7687 37.9453 34.6807 37.9871 34.591C38.1324 34.263 38.2524 33.9252 38.3462 33.5754C38.3898 33.4074 38.4293 33.2376 38.4604 33.0656C38.4813 32.9518 38.5 32.8358 38.5164 32.7198C38.5538 32.4238 38.5747 32.1238 38.5747 31.8181C38.5747 31.6403 38.5684 31.4661 38.5538 31.2923L38.5533 31.2905Z" fill="white"/>
</svg>
