<svg width="101" height="101" viewBox="0 0 101 101" fill="none" xmlns="http://www.w3.org/2000/svg">
<path d="M31.9822 65.6961C31.9822 62.1344 29.095 59.2471 25.5336 59.2471C21.9721 59.2471 19.085 62.1344 19.085 65.6961V73.7424C19.085 77.3042 21.9721 80.1915 25.5336 80.1915C29.095 80.1915 31.9822 77.3042 31.9822 73.7424V65.6961Z" fill="#BCBEC0"/>
<path d="M41.8321 46.376H41.0886C37.7324 46.376 35.0117 49.0967 35.0117 52.4528V74.1149C35.0117 77.471 37.7324 80.1917 41.0886 80.1917H41.8321C45.1882 80.1917 47.9089 77.471 47.9089 74.1149V52.4528C47.9089 49.0967 45.1882 46.376 41.8321 46.376Z" fill="#BCBEC0"/>
<path d="M58.6863 52.9854H58.0391C54.6563 52.9854 51.9141 55.7276 51.9141 59.1103V74.0668C51.9141 77.4496 54.6563 80.1918 58.0391 80.1918H58.6863C62.069 80.1918 64.8113 77.4496 64.8113 74.0668V59.1103C64.8113 55.7276 62.069 52.9854 58.6863 52.9854Z" fill="#BCBEC0"/>
<path d="M76.1551 29.1602H74.8671C71.6613 29.1602 69.0625 31.759 69.0625 34.9648V74.387C69.0625 77.5928 71.6613 80.1916 74.8671 80.1916H76.1551C79.3609 80.1916 81.9597 77.5928 81.9597 74.387V34.9648C81.9597 31.759 79.3609 29.1602 76.1551 29.1602Z" fill="#BCBEC0"/>
<path d="M20.7716 46.1074C20.2697 46.1074 19.7734 45.887 19.4373 45.4629C18.8549 44.7278 18.979 43.6583 19.7151 43.0759L32.1401 33.2407C33.7206 32.0398 35.8558 31.975 37.479 33.0565L44.0873 37.462C44.9743 38.0528 46.116 38.0611 47.0095 37.487L70.7882 19.412C71.5355 18.8444 72.6012 18.9889 73.1697 19.7361C73.7373 20.4833 73.5929 21.5491 72.8456 22.1176L49.0197 40.2287C48.9919 40.25 48.9632 40.2704 48.9336 40.2898C46.8892 41.6528 44.2466 41.6537 42.2021 40.2898L35.5947 35.8842C35.1753 35.6046 34.6234 35.6213 34.2234 35.9259L21.8262 45.7407C21.5142 45.9879 21.1419 46.1074 20.7725 46.1074H20.7716Z" fill="#6D6E71"/>
</svg>
