<svg width="512" height="512" viewBox="0 0 512 512" fill="none" xmlns="http://www.w3.org/2000/svg">
<g clip-path="url(#clip0_675_34248)">
<path d="M512 0H0V512H512V0Z" fill="white"/>
<path d="M346.84 316.569C346.84 324.597 343.651 332.297 337.974 337.973C332.297 343.65 324.598 346.839 316.569 346.839C308.538 346.84 300.836 343.651 295.155 337.975C289.474 332.299 286.278 324.6 286.271 316.569C286.278 308.538 289.474 300.839 295.155 295.163C300.836 289.487 308.538 286.298 316.569 286.298C324.598 286.298 332.297 289.488 337.974 295.164C343.651 300.841 346.84 308.541 346.84 316.569Z" fill="#0055F9"/>
<path d="M172.7 296.483L112.862 356.293C107.187 361.979 104.001 369.683 104.001 377.716C104.001 385.749 107.187 393.453 112.862 399.139C118.543 404.811 126.243 407.998 134.271 407.998C142.299 407.998 149.999 404.811 155.679 399.139L215.517 339.301C221.19 333.62 224.376 325.92 224.376 317.892C224.376 309.864 221.19 302.164 215.517 296.483C209.836 290.811 202.137 287.625 194.108 287.625C186.08 287.625 178.38 290.811 172.7 296.483Z" fill="#003451"/>
<path d="M399.11 112.919C396.301 110.103 392.964 107.869 389.29 106.345C385.617 104.821 381.679 104.037 377.701 104.037C373.724 104.037 369.786 104.821 366.112 106.345C362.439 107.869 359.102 110.103 356.292 112.919L213.154 256.029L219.371 262.246C229.077 271.935 242.23 277.377 255.944 277.377C269.658 277.377 282.811 271.935 292.516 262.246L399.026 155.736C401.841 152.927 404.075 149.59 405.599 145.917C407.123 142.243 407.908 138.305 407.908 134.328C407.908 130.35 407.123 126.412 405.599 122.738C404.075 119.065 401.841 115.728 399.026 112.919" fill="#003451"/>
<path d="M303.713 250.768L341.354 213.126C335.732 218.751 329.057 223.212 321.71 226.256C314.363 229.3 306.489 230.867 298.536 230.867C290.584 230.867 282.709 229.3 275.363 226.256C268.016 223.212 261.341 218.751 255.719 213.126L216.868 174.275C211.187 168.603 203.487 165.417 195.459 165.417C187.431 165.417 179.731 168.603 174.05 174.275C171.234 177.084 169.001 180.421 167.477 184.095C165.952 187.769 165.168 191.707 165.168 195.684C165.168 199.661 165.952 203.6 167.477 207.273C169.001 210.947 171.234 214.284 174.05 217.093L219.315 262.499C228.949 272.129 242.013 277.54 255.634 277.54C269.256 277.54 282.32 272.129 291.953 262.499L303.713 250.768Z" fill="#0055F9"/>
</g>
<defs>
<clipPath id="clip0_675_34248">
<rect width="512" height="512" fill="white"/>
</clipPath>
</defs>
</svg>
