<svg width="101" height="100" viewBox="0 0 101 100" fill="none" xmlns="http://www.w3.org/2000/svg">
<path d="M65.4306 49.8081H64.5C64.687 49.8035 64.8787 49.7998 65.0694 49.7998C65.1917 49.7998 65.313 49.7998 65.4306 49.8081Z" fill="#3F3A3B"/>
<path d="M49.8476 49.3348C58.0735 49.3348 64.742 42.6663 64.742 34.4403C64.742 26.2144 58.0735 19.5459 49.8476 19.5459C41.6216 19.5459 34.9531 26.2144 34.9531 34.4403C34.9531 42.6663 41.6216 49.3348 49.8476 49.3348Z" fill="#003451"/>
<path d="M80.7986 64.5855C80.7856 64.405 80.768 64.229 80.7467 64.0531C80.7291 63.8725 80.7032 63.6966 80.6773 63.5207C79.6078 56.5003 73.4143 51.0809 65.8736 50.917H64.943C64.3736 50.9383 63.8171 50.9883 63.2643 51.0679C62.9986 51.1059 62.7384 51.1522 62.4773 51.2022C62.4254 51.2105 62.3689 51.2235 62.3162 51.2355C62.168 51.2651 62.0162 51.2985 61.868 51.3318C61.8328 51.3401 61.8032 51.3485 61.768 51.3568C61.5726 51.4031 61.3763 51.4531 61.181 51.5077C57.5365 52.317 53.6402 52.7438 49.7476 52.7438C46.4467 52.7438 43.2199 52.4337 40.1152 51.8466C39.7412 51.7753 39.3717 51.679 39.006 51.5827C38.4495 51.4364 37.8838 51.3188 37.3097 51.2346H37.305C36.6004 51.1337 35.8828 51.0753 35.1523 51.067H34.9875C34.9134 51.067 34.8356 51.067 34.7615 51.0716C27.6726 51.1679 21.7495 55.9337 20.1625 62.3216C19.8884 63.4244 19.7402 64.5762 19.7402 65.7624C19.7402 66.9485 19.8838 68.1012 20.1625 69.2031C21.7412 75.5448 27.5773 80.2809 34.5958 80.4531H65.9504C70.4949 80.3272 74.5393 78.2948 77.2569 75.1596C77.3782 75.0216 77.4958 74.879 77.6088 74.7364C77.7476 74.5688 77.8828 74.3929 78.0134 74.217C78.031 74.2003 78.0439 74.179 78.0569 74.1624C78.2745 73.8605 78.4828 73.555 78.6791 73.2401C78.7051 73.1985 78.731 73.1559 78.7578 73.1142C78.9662 72.7707 79.1662 72.4188 79.3449 72.0577C79.4365 71.8735 79.5236 71.6892 79.6097 71.5003C79.9143 70.8133 80.1662 70.105 80.3625 69.3707C80.4541 69.0188 80.5365 68.6624 80.6013 68.3022C80.6449 68.0633 80.6838 67.8198 80.7189 67.5772C80.7976 66.9568 80.8412 66.3281 80.8412 65.6864C80.8412 65.3133 80.8282 64.9485 80.7976 64.5837L80.7986 64.5855Z" fill="#0055F9"/>
</svg>
