<svg width="48" height="48" viewBox="0 0 48 48" fill="none" xmlns="http://www.w3.org/2000/svg">
<g clip-path="url(#clip0_915_87777)">
<path d="M23.9998 47.6207C37.0452 47.6207 47.6207 37.0452 47.6207 23.9998C47.6207 10.9543 37.0452 0.378906 23.9998 0.378906C10.9543 0.378906 0.378906 10.9543 0.378906 23.9998C0.378906 37.0452 10.9543 47.6207 23.9998 47.6207Z" fill="#0055F9"/>
<path d="M38.4069 32.019V38.2226L38.3807 38.2479C36.4785 40.1501 33.3945 40.1501 31.4923 38.2479L31.4665 38.2226H31.4643L31.4394 38.2474C29.5372 40.1497 26.4527 40.1497 24.5505 38.2474L24.5754 38.2226L24.5505 38.1972L24.5252 38.2226L24.5505 38.2474C22.6483 40.1501 19.5643 40.1501 17.6621 38.2474L17.6367 38.2221V32.0186H38.4069V32.019Z" fill="white"/>
<path d="M24.5756 38.2226H24.5254L24.5507 38.1973L24.5756 38.2226Z" fill="#0055F9"/>
<path d="M16.9804 20.9989C16.9804 21.1127 16.9804 21.2265 16.9804 21.3402C15.7733 21.3345 14.5658 21.3238 13.3591 21.334C11.2475 21.3518 9.55598 19.9873 9.59064 18.3878C9.62798 16.6629 9.63109 14.9367 9.59064 13.2118C9.56264 12.0113 10.2706 10.8398 11.5062 10.0802C12.2822 9.60335 13.2404 9.52868 14.0844 9.8709C14.2533 9.9389 14.4195 9.99535 14.58 10.0496C14.8591 10.1442 15.1231 10.2336 15.3409 10.3696C16.4258 11.0416 16.9582 11.9687 16.9689 13.2029C16.9898 15.8011 16.9853 18.4433 16.9809 20.9989H16.9804Z" fill="#BCBEC0"/>
<path d="M38.4073 30.6042H17.6282V25.17H17.6393V24.8371C17.6393 24.6931 17.6331 24.5486 17.6309 24.4046C17.6349 24.3531 17.6433 24.3015 17.6433 24.25C17.6433 20.5651 17.6642 16.882 17.6349 13.1971C17.6224 11.7429 16.9647 10.5913 15.6913 9.80243C15.2682 9.53887 14.7864 9.43576 14.334 9.25265C14.6669 9.19087 15.002 9.22998 15.3371 9.22998C20.8682 9.22776 26.3975 9.22376 31.9291 9.22998C32.0131 9.22998 32.0949 9.23621 32.1775 9.23932H34.7953C36.7927 9.23932 38.4113 10.8318 38.4113 12.7958V16.1815C38.41 20.042 38.4131 23.9042 38.4091 27.7647L38.4069 30.6046L38.4073 30.6042Z" fill="white"/>
<path d="M24.8648 17.1016C25.4212 17.1016 25.8799 17.1687 26.2421 17.3029C26.6043 17.4371 26.8732 17.6398 27.0492 17.9109C27.2252 18.182 27.3132 18.5247 27.3132 18.938C27.3132 19.2176 27.2603 19.462 27.1537 19.6718C27.0475 19.8811 26.9079 20.0589 26.7346 20.2042C26.5612 20.3496 26.3741 20.4682 26.1728 20.5607L27.9759 23.2313H26.5337L25.0701 20.8793H24.3781V23.2313H23.0781V17.1016H24.8643H24.8648ZM24.7723 18.1665H24.3781V19.8225H24.7972C25.2275 19.8225 25.5359 19.7505 25.7217 19.6065C25.9075 19.4625 26.0003 19.2509 26.0003 18.9713C26.0003 18.6918 25.9003 18.4736 25.7008 18.3509C25.5008 18.2278 25.1915 18.1665 24.7719 18.1665H24.7723Z" fill="#0055F9"/>
<path d="M31.2545 18.4561C31.7829 18.4561 32.2096 18.6614 32.5354 19.0725C32.8612 19.4836 33.0238 20.0858 33.0238 20.8796C33.0238 21.4107 32.9469 21.8574 32.7932 22.2192C32.6394 22.5814 32.4269 22.8547 32.1558 23.0392C31.8847 23.2236 31.5732 23.3161 31.2207 23.3161C30.994 23.3161 30.7998 23.2876 30.638 23.2303C30.4758 23.1729 30.3376 23.0987 30.2229 23.0081C30.1083 22.9169 30.0091 22.8201 29.9251 22.7165H29.858C29.8803 22.8285 29.8971 22.9432 29.9083 23.0605C29.9194 23.1778 29.9251 23.2925 29.9251 23.4045V25.2952H28.6465V18.5449H29.686L29.8665 19.1529H29.9251C30.0091 19.0272 30.1109 18.9112 30.2314 18.8049C30.3514 18.6987 30.4963 18.6143 30.6652 18.5512C30.8345 18.4881 31.0305 18.4565 31.254 18.4565L31.2545 18.4561ZM30.8438 19.4792C30.6203 19.4792 30.4425 19.5254 30.3114 19.6174C30.1798 19.7098 30.0843 19.8481 30.0243 20.0325C29.9643 20.2169 29.9314 20.4503 29.9256 20.7329V20.8712C29.9256 21.1729 29.954 21.4289 30.0114 21.6383C30.0687 21.8481 30.1651 22.0072 30.3007 22.1165C30.4363 22.2254 30.6229 22.2801 30.8603 22.2801C31.0558 22.2801 31.2167 22.2254 31.3425 22.1165C31.4683 22.0076 31.5625 21.8476 31.6256 21.6365C31.6883 21.4254 31.7198 21.1676 31.7198 20.8632C31.7198 20.4045 31.6487 20.0596 31.506 19.8276C31.3634 19.5956 31.1425 19.4796 30.8438 19.4796V19.4792Z" fill="#0055F9"/>
<path d="M24.5756 38.2226L24.5507 38.2475L24.5254 38.2226L24.5507 38.1973L24.5756 38.2226Z" fill="#0055F9"/>
<path d="M24.5756 38.2226L24.5507 38.2475L24.5254 38.2226L24.5507 38.1973L24.5756 38.2226Z" fill="#0055F9"/>
</g>
<defs>
<clipPath id="clip0_915_87777">
<rect width="48" height="48" fill="white"/>
</clipPath>
</defs>
</svg>
