<svg width="101" height="101" viewBox="0 0 101 101" fill="none" xmlns="http://www.w3.org/2000/svg">
<path d="M31.5544 65.6961C31.5544 62.1344 28.6673 59.2471 25.1058 59.2471C21.5444 59.2471 18.6572 62.1344 18.6572 65.6961V73.7424C18.6572 77.3042 21.5444 80.1915 25.1058 80.1915C28.6673 80.1915 31.5544 77.3042 31.5544 73.7424V65.6961Z" fill="#0055F9"/>
<path d="M41.4044 46.376H40.6608C37.3047 46.376 34.584 49.0967 34.584 52.4528V74.1149C34.584 77.471 37.3047 80.1917 40.6608 80.1917H41.4044C44.7605 80.1917 47.4812 77.471 47.4812 74.1149V52.4528C47.4812 49.0967 44.7605 46.376 41.4044 46.376Z" fill="#0055F9"/>
<path d="M58.2586 52.9854H57.6113C54.2286 52.9854 51.4863 55.7276 51.4863 59.1103V74.0668C51.4863 77.4496 54.2286 80.1918 57.6113 80.1918H58.2586C61.6413 80.1918 64.3836 77.4496 64.3836 74.0668V59.1103C64.3836 55.7276 61.6413 52.9854 58.2586 52.9854Z" fill="#0055F9"/>
<path d="M75.7274 29.1602H74.4394C71.2336 29.1602 68.6348 31.759 68.6348 34.9648V74.387C68.6348 77.5928 71.2336 80.1916 74.4394 80.1916H75.7274C78.9332 80.1916 81.532 77.5928 81.532 74.387V34.9648C81.532 31.759 78.9332 29.1602 75.7274 29.1602Z" fill="#0055F9"/>
<path d="M20.3438 46.1074C19.842 46.1074 19.3457 45.887 19.0096 45.4629C18.4272 44.7278 18.5512 43.6583 19.2874 43.0759L31.7124 33.2407C33.2929 32.0398 35.4281 31.975 37.0512 33.0565L43.6596 37.462C44.5466 38.0528 45.6883 38.0611 46.5818 37.487L70.3605 19.412C71.1077 18.8444 72.1735 18.9889 72.742 19.7361C73.3096 20.4833 73.1651 21.5491 72.4179 22.1176L48.592 40.2287C48.5642 40.25 48.5355 40.2704 48.5059 40.2898C46.4614 41.6528 43.8188 41.6537 41.7744 40.2898L35.167 35.8842C34.7475 35.6046 34.1957 35.6213 33.7957 35.9259L21.3985 45.7407C21.0864 45.9879 20.7142 46.1074 20.3448 46.1074H20.3438Z" fill="#2B2E33"/>
</svg>
