<svg width="101" height="100" viewBox="0 0 101 100" fill="none" xmlns="http://www.w3.org/2000/svg">
<path d="M68.9434 55.0469H34.8008V80.3506H68.9434V55.0469Z" fill="#939598"/>
<path d="M78.3913 38.1262L56.7302 21.753C52.8367 18.8104 47.3562 18.8113 43.4645 21.7567L21.8404 38.1234C20.4673 39.1632 19.7414 40.8058 19.9164 42.4789L23.5645 77.303C23.7478 79.0549 25.2793 80.3891 27.109 80.391L36.2543 80.403C36.3802 80.403 36.5043 80.3965 36.6265 80.3845H39.7932V77.4178C39.8136 77.2706 39.8265 77.1225 39.8265 76.9697V62.6391C39.8265 59.9252 42.1136 57.7243 44.9349 57.7243H55.2941C58.1154 57.7243 60.4025 59.9243 60.4025 62.6391V77.0086C60.4025 77.0363 60.4062 77.0641 60.4071 77.0919V80.4345H63.8284C63.8747 80.4363 63.9191 80.441 63.9654 80.441L73.1599 80.453C74.996 80.4558 76.5339 79.1178 76.7154 77.3604L80.3182 42.4752C80.4904 40.8039 79.7636 39.1632 78.3913 38.1252V38.1262Z" fill="#BCBEC0"/>
<path d="M50.1175 50.2487C54.5522 50.2487 58.1471 46.6537 58.1471 42.2191C58.1471 37.7844 54.5522 34.1895 50.1175 34.1895C45.6829 34.1895 42.0879 37.7844 42.0879 42.2191C42.0879 46.6537 45.6829 50.2487 50.1175 50.2487Z" fill="white"/>
</svg>
