<svg width="512" height="512" viewBox="0 0 512 512" fill="none" xmlns="http://www.w3.org/2000/svg">
<g clip-path="url(#clip0_675_80831)">
<path d="M512 0H0V512H512V0Z" fill="white"/>
<g clip-path="url(#clip1_675_80831)">
<path d="M370.745 332.508C370.745 342.649 366.717 352.375 359.546 359.545C352.375 366.716 342.65 370.745 332.509 370.745C322.364 370.745 312.635 366.717 305.459 359.547C298.282 352.378 294.246 342.652 294.237 332.508C294.246 322.364 298.282 312.638 305.459 305.469C312.635 298.299 322.364 294.271 332.509 294.271C342.65 294.271 352.375 298.3 359.546 305.471C366.717 312.641 370.745 322.367 370.745 332.508Z" fill="#0055F9"/>
<path d="M150.778 307.137L75.1938 382.686C68.0262 389.868 64.0007 399.6 64.0007 409.746C64.0007 419.893 68.0262 429.625 75.1938 436.807C82.3696 443.972 92.0958 447.997 102.237 447.997C112.377 447.997 122.103 443.972 129.279 436.807L204.864 361.222C212.029 354.046 216.054 344.32 216.054 334.179C216.054 324.039 212.029 314.313 204.864 307.137C197.688 299.971 187.962 295.947 177.821 295.947C167.68 295.947 157.954 299.971 150.778 307.137Z" fill="#003451"/>
<path d="M436.771 75.2653C433.222 71.7088 429.007 68.8873 424.367 66.9621C419.726 65.0369 414.752 64.0459 409.728 64.0459C404.704 64.0459 399.729 65.0369 395.089 66.9621C390.449 68.8873 386.234 71.7088 382.685 75.2653L201.879 256.036L209.732 263.889C221.992 276.128 238.606 283.002 255.929 283.002C273.252 283.002 289.866 276.128 302.125 263.889L436.664 129.351C440.221 125.802 443.042 121.587 444.967 116.947C446.893 112.307 447.884 107.332 447.884 102.308C447.884 97.2842 446.893 92.3096 444.967 87.6692C443.042 83.0288 440.221 78.8137 436.664 75.2653" fill="#003451"/>
<path d="M316.269 249.391L363.816 201.844C356.714 208.948 348.282 214.584 339.002 218.429C329.722 222.274 319.775 224.253 309.73 224.253C299.685 224.253 289.738 222.274 280.458 218.429C271.178 214.584 262.746 208.948 255.645 201.844L206.57 152.769C199.394 145.604 189.668 141.579 179.527 141.579C169.386 141.579 159.66 145.604 152.484 152.769C148.928 156.317 146.106 160.533 144.181 165.173C142.256 169.813 141.265 174.788 141.265 179.812C141.265 184.836 142.256 189.81 144.181 194.451C146.106 199.091 148.928 203.306 152.484 206.855L209.661 264.209C221.83 276.374 238.332 283.208 255.538 283.208C272.744 283.208 289.246 276.374 301.415 264.209L316.269 249.391Z" fill="#0055F9"/>
</g>
</g>
<defs>
<clipPath id="clip0_675_80831">
<rect width="512" height="512" fill="white"/>
</clipPath>
<clipPath id="clip1_675_80831">
<rect width="384" height="384" fill="white" transform="translate(64 64)"/>
</clipPath>
</defs>
</svg>
