<svg width="101" height="100" viewBox="0 0 101 100" fill="none" xmlns="http://www.w3.org/2000/svg">
<path d="M69.5156 55.0469H35.373V80.3506H69.5156V55.0469Z" fill="#003451"/>
<path d="M78.9636 38.1262L57.3025 21.753C53.409 18.8104 47.9284 18.8113 44.0368 21.7567L22.4127 38.1234C21.0395 39.1632 20.3136 40.8058 20.4886 42.4789L24.1368 77.303C24.3201 79.0549 25.8516 80.3891 27.6812 80.391L36.8266 80.403C36.9525 80.403 37.0766 80.3965 37.1988 80.3845H40.3655V77.4178C40.3858 77.2706 40.3988 77.1225 40.3988 76.9697V62.6391C40.3988 59.9252 42.6858 57.7243 45.5071 57.7243H55.8664C58.6877 57.7243 60.9747 59.9243 60.9747 62.6391V77.0086C60.9747 77.0363 60.9784 77.0641 60.9794 77.0919V80.4345H64.4007C64.447 80.4363 64.4914 80.441 64.5377 80.441L73.7321 80.453C75.5682 80.4558 77.1062 79.1178 77.2877 77.3604L80.8905 42.4752C81.0627 40.8039 80.3358 39.1632 78.9636 38.1252V38.1262Z" fill="#0055F9"/>
<path d="M50.6898 50.2487C55.1244 50.2487 58.7194 46.6537 58.7194 42.2191C58.7194 37.7844 55.1244 34.1895 50.6898 34.1895C46.2551 34.1895 42.6602 37.7844 42.6602 42.2191C42.6602 46.6537 46.2551 50.2487 50.6898 50.2487Z" fill="white"/>
</svg>
