<svg width="48" height="49" viewBox="0 0 48 49" fill="none" xmlns="http://www.w3.org/2000/svg">
<path d="M24.5756 38.4904H24.5254L24.5507 38.4648L24.5756 38.4904Z" fill="#0055F9"/>
<path d="M24.5756 38.4904L24.5507 38.5154L24.5254 38.4904L24.5507 38.4648L24.5756 38.4904Z" fill="#0055F9"/>
<path d="M24.5756 38.4904L24.5507 38.5154L24.5254 38.4904L24.5507 38.4648L24.5756 38.4904Z" fill="#0055F9"/>
<path d="M38.6812 13.0103C38.6812 10.9954 37.0319 9.36183 34.9972 9.36183H32.3306C32.2461 9.3587 32.1626 9.35243 32.0772 9.35243C26.4421 9.34616 20.8092 9.35019 15.1746 9.35243C14.8332 9.35243 14.4919 9.31215 14.1523 9.3757C14.6132 9.56368 15.1039 9.6693 15.535 9.94007C16.8323 10.7492 17.5021 11.9308 17.515 13.4225C17.5448 17.2029 17.5235 20.9812 17.5235 24.7612C17.5235 24.814 17.515 24.8668 17.5106 24.9196C17.5128 25.0678 17.519 25.2155 17.519 25.3636V25.7051H17.5075V30.0983H38.6759V33.1251C38.6781 31.5381 38.6803 29.9533 38.6781 28.3662C38.6821 24.4059 38.679 20.4441 38.6803 16.4837V13.0107L38.6812 13.0103Z" fill="white"/>
<path d="M14.1521 9.37949C14.6121 9.53031 15.1027 9.6149 15.5339 9.82928C16.8316 10.4755 17.5023 11.4181 17.5143 12.6077C17.545 15.6224 17.5241 18.6376 17.5232 21.6523C17.5232 21.6943 17.5147 21.736 17.5103 21.778C16.0596 21.774 14.6085 21.7565 13.1583 21.7691C11.0072 21.7874 9.28408 20.3875 9.31919 18.7463C9.35741 16.9767 9.36053 15.2062 9.31919 13.4365C9.2743 11.5201 11.0463 9.67532 13.833 9.38396C13.9379 9.37322 14.0454 9.38038 14.1516 9.37904L14.1521 9.37949Z" fill="#BCBEC0"/>
<path d="M38.6767 32.7314V39.0397C38.09 38.9023 37.7251 38.5541 37.3687 38.2126C36.9229 37.787 36.5025 37.3833 35.6469 37.3833C34.7914 37.3833 34.3731 37.7874 33.9274 38.2126C33.4709 38.6508 32.9994 39.1024 32.0585 39.1024C31.1176 39.1024 30.6482 38.6512 30.1914 38.2126C29.7456 37.787 29.3251 37.3833 28.4718 37.3833C27.6185 37.3833 27.1958 37.7874 26.75 38.2126C26.2936 38.6508 25.822 39.1024 24.8811 39.1024C23.9402 39.1024 23.4709 38.6512 23.014 38.2126C22.5682 37.787 22.1478 37.3833 21.2945 37.3833C20.4411 37.3833 20.0185 37.7874 19.5727 38.2126C19.1162 38.6508 18.6447 39.1024 17.7056 39.1024C17.6416 39.1024 17.5798 39.1001 17.522 39.0961V38.645C17.5198 38.286 17.5198 37.9293 17.5198 37.5708C17.5176 35.9574 17.5176 34.3458 17.5176 32.7323H38.6771L38.6767 32.7314Z" fill="white"/>
<path d="M33.318 16.8184H22.8762C22.2979 16.8184 21.8291 17.2904 21.8291 17.8728V17.9167C21.8291 18.499 22.2979 18.9711 22.8762 18.9711H33.318C33.8963 18.9711 34.3651 18.499 34.3651 17.9167V17.8728C34.3651 17.2904 33.8963 16.8184 33.318 16.8184Z" fill="#BCBEC0"/>
<path d="M33.318 21.9053H22.8762C22.2979 21.9053 21.8291 22.3774 21.8291 22.9597V23.0036C21.8291 23.5859 22.2979 24.058 22.8762 24.058H33.318C33.8963 24.058 34.3651 23.5859 34.3651 23.0036V22.9597C34.3651 22.3774 33.8963 21.9053 33.318 21.9053Z" fill="#BCBEC0"/>
</svg>
