<svg width="186" height="79" viewBox="0 0 186 79" fill="none" xmlns="http://www.w3.org/2000/svg">
<g clip-path="url(#clip0_604_77918)">
<path d="M62.9332 55.2692C62.9236 57.3448 62.0971 59.3326 60.6335 60.8002C59.1699 62.2679 57.1875 63.0967 55.1176 63.1063C54.0868 63.1111 53.0652 62.9122 52.1111 62.5208C51.157 62.1295 50.2892 61.5534 49.5572 60.8256C48.8253 60.0977 48.2436 59.2324 47.8454 58.279C47.4471 57.3256 47.2402 56.3028 47.2364 55.2692C47.2325 54.2303 47.4338 53.2009 47.8285 52.2403C48.2232 51.2797 48.8035 50.407 49.5361 49.6724C50.2688 48.9377 51.1391 48.3558 52.097 47.96C53.055 47.5642 54.0816 47.3624 55.1176 47.3663C57.1989 47.3759 59.1911 48.2138 60.6566 49.6957C62.1221 51.1775 62.941 53.1822 62.9332 55.2692Z" fill="#CECECE"/>
<path d="M17.7965 50.02L2.29652 65.5627C0.826436 67.039 0.000732422 69.0399 0.000732422 71.1262C0.000732422 73.2124 0.826436 75.2134 2.29652 76.6896C3.02452 77.4213 3.88931 78.0018 4.84136 78.3979C5.7934 78.794 6.81401 78.9978 7.84474 78.9978C8.87547 78.9978 9.89608 78.794 10.8481 78.3979C11.8002 78.0018 12.6649 77.4213 13.3929 76.6896L28.8711 61.1178C29.6007 60.3877 30.1796 59.5206 30.5746 58.5659C30.9696 57.6112 31.1729 56.5878 31.1729 55.5543C31.1729 54.5207 30.9696 53.4973 30.5746 52.5426C30.1796 51.588 29.6007 50.7208 28.8711 49.9908C28.1431 49.2591 27.2783 48.6786 26.3262 48.2826C25.3742 47.8865 24.3536 47.6826 23.3229 47.6826C22.2921 47.6826 21.2715 47.8865 20.3195 48.2826C19.3675 48.6786 18.5027 49.2591 17.7747 49.9908" fill="white"/>
<path d="M76.4793 2.30308C75.0071 0.828953 73.0116 0.000976562 70.9311 0.000976562C68.8505 0.000976563 66.8551 0.828953 65.3828 2.30308L28.2878 39.5002L29.8991 41.1086C32.4142 43.6264 35.823 45.0406 39.377 45.0406C42.931 45.0406 46.3397 43.6264 48.8549 41.1086L76.4574 13.4374C77.9279 11.9598 78.7538 9.95766 78.7538 7.87022C78.7538 5.78278 77.9279 3.7806 76.4574 2.30308" fill="white"/>
<path d="M51.7491 38.1545L61.5041 28.3727C58.5584 31.3214 54.5662 32.9775 50.404 32.9775C46.2418 32.9775 42.2496 31.3214 39.3039 28.3727L29.2428 18.2765C28.5141 17.5447 27.6487 16.964 26.6961 16.5678C25.7434 16.1717 24.7222 15.9678 23.6909 15.9678C22.6596 15.9678 21.6384 16.1717 20.6857 16.5678C19.7331 16.964 18.8677 17.5447 18.139 18.2765C16.669 19.7528 15.8433 21.7538 15.8433 23.84C15.8433 25.9263 16.669 27.9272 18.139 29.4035L29.8916 41.1884C32.3894 43.6916 35.7762 45.0977 39.3076 45.0977C42.8389 45.0977 46.2257 43.6916 48.7235 41.1884L51.7491 38.1545Z" fill="#CECECE"/>
<path d="M77.2156 29.6816C78.2765 29.653 79.3351 29.7962 80.3506 30.1056C81.1089 30.3448 81.7972 30.7665 82.3555 31.3338C82.8669 31.8838 83.235 32.5517 83.4273 33.2785C83.6459 34.1085 83.7513 34.9643 83.7408 35.8226V44.6686C83.1283 44.8002 82.2826 44.9611 81.2036 45.1438C79.9004 45.3376 78.584 45.4281 77.2666 45.4143C76.3828 45.4212 75.5007 45.3354 74.6347 45.1585C73.913 45.0062 73.2273 44.7157 72.6152 44.3031C72.0507 43.9191 71.5979 43.3919 71.3029 42.7752C70.9824 42.0459 70.828 41.2542 70.8508 40.4576C70.8278 39.6811 71.0088 38.9121 71.3758 38.2279C71.7169 37.6288 72.2034 37.1258 72.7902 36.7657C73.4156 36.3933 74.0979 36.1265 74.8097 35.9761C75.589 35.8137 76.3831 35.7329 77.1791 35.7349C77.6661 35.7344 78.1528 35.7588 78.6373 35.808C78.9894 35.8426 79.3381 35.9062 79.6799 35.9981V35.596C79.6942 35.2754 79.6435 34.9552 79.5307 34.6548C79.4179 34.3544 79.2454 34.0802 79.0237 33.8487C78.3767 33.3414 77.5586 33.1055 76.7417 33.1907C76.0267 33.1926 75.3128 33.2463 74.6055 33.3516C73.9843 33.4332 73.3734 33.5803 72.7829 33.7902L72.2361 30.3615C72.4839 30.2884 72.7974 30.208 73.1693 30.1202C73.5411 30.0325 73.9421 29.9594 74.3795 29.8936C74.817 29.8278 75.2763 29.7693 75.7575 29.7181C76.2387 29.667 76.7344 29.6523 77.2156 29.6523M77.5583 42.0806C77.9738 42.0806 78.3748 42.0806 78.7539 42.0806C79.0594 42.0735 79.364 42.0442 79.6653 41.9929V38.7689C79.4104 38.7135 79.1523 38.6744 78.8925 38.6519C78.5802 38.616 78.2663 38.5965 77.952 38.5934C77.5766 38.5945 77.2016 38.6189 76.8292 38.6665C76.5083 38.7072 76.1958 38.7985 75.9033 38.937C75.6497 39.0578 75.4332 39.2446 75.2763 39.478C75.1175 39.7368 75.0388 40.037 75.0503 40.3407C75.0224 40.61 75.0697 40.8818 75.1868 41.1258C75.304 41.3697 75.4864 41.5763 75.7137 41.7224C76.2841 42.0115 76.9202 42.1451 77.5583 42.1099" fill="#CECECE"/>
<path d="M99.8459 30.062C98.9856 32.957 98.0888 35.6742 97.1556 38.2135C96.2224 40.7527 95.2042 43.2092 94.1008 45.5827C93.7543 46.3411 93.3548 47.074 92.9052 47.7759C92.5387 48.3252 92.0941 48.8177 91.5855 49.2381C91.1094 49.626 90.562 49.9166 89.9743 50.0935C89.2938 50.2859 88.5888 50.377 87.8819 50.3639C87.2624 50.3666 86.6443 50.3053 86.0373 50.1812C85.5642 50.0835 85.1007 49.944 84.6521 49.7645L85.3812 46.365C85.7617 46.4987 86.1516 46.6038 86.5477 46.6793C86.9073 46.7329 87.2704 46.7598 87.634 46.7597C87.9518 46.7806 88.2706 46.7369 88.5713 46.6314C88.8719 46.5259 89.1482 46.3607 89.3838 46.1456C89.8432 45.6576 90.198 45.0804 90.4263 44.4496C89.4542 42.539 88.4821 40.3994 87.51 38.0307C86.4574 35.4179 85.5447 32.7505 84.776 30.04H89.2744C89.464 30.7711 89.69 31.5899 89.9524 32.4599C90.2149 33.3299 90.4774 34.1999 90.7617 35.0845C91.046 35.9691 91.345 36.8317 91.6366 37.6725C91.9282 38.5132 92.2125 39.2735 92.4823 39.9607C92.7302 39.2735 92.9854 38.4986 93.2551 37.6725C93.5249 36.8464 93.7873 35.9764 94.0425 35.0845C94.2977 34.1926 94.5456 33.3226 94.7716 32.4599C94.9976 31.5972 95.2236 30.7857 95.4132 30.04L99.8459 30.062Z" fill="#CECECE"/>
<path d="M115.011 37.5548C115.022 38.656 114.847 39.7511 114.493 40.7935C114.189 41.7256 113.692 42.5826 113.035 43.3084C112.383 44.007 111.59 44.5579 110.709 44.9241C109.747 45.3167 108.715 45.5106 107.676 45.4943C106.647 45.5085 105.625 45.3146 104.672 44.9241C103.791 44.5579 102.998 44.007 102.347 43.3084C101.677 42.5825 101.164 41.7266 100.838 40.7935C100.466 39.7551 100.283 38.6581 100.298 37.5548C100.283 36.4527 100.47 35.3572 100.852 34.3235C101.192 33.399 101.715 32.5533 102.39 31.8379C103.05 31.149 103.844 30.604 104.723 30.2368C105.66 29.8504 106.664 29.6565 107.676 29.6666C108.698 29.6543 109.712 29.8483 110.658 30.2368C111.535 30.6006 112.325 31.1462 112.976 31.8379C113.645 32.553 114.159 33.3993 114.486 34.3235C114.861 35.3586 115.047 36.4534 115.032 37.5548M110.658 37.5548C110.721 36.4636 110.448 35.3793 109.878 34.4478C109.632 34.0841 109.297 33.7896 108.905 33.5925C108.513 33.3955 108.078 33.3023 107.64 33.3219C107.2 33.3026 106.762 33.3957 106.368 33.5927C105.974 33.7896 105.636 34.0839 105.387 34.4478C104.808 35.3763 104.531 36.4617 104.592 37.5548C104.535 38.6545 104.812 39.7456 105.387 40.6838C105.632 41.0536 105.968 41.354 106.363 41.5563C106.757 41.7585 107.197 41.8559 107.64 41.839C108.081 41.8569 108.518 41.7599 108.911 41.5574C109.303 41.355 109.636 41.054 109.878 40.6838C110.444 39.7425 110.716 38.6526 110.658 37.5548Z" fill="#CECECE"/>
<path d="M131.509 37.5769C131.523 38.6495 131.381 39.7184 131.087 40.7498C130.832 41.6447 130.406 42.4814 129.833 43.2135C129.278 43.8976 128.575 44.4452 127.777 44.8146C126.889 45.2094 125.926 45.4041 124.955 45.3848C124.399 45.3882 123.844 45.3294 123.3 45.2093C122.799 45.0991 122.31 44.9375 121.842 44.7268V50.3854H117.599V30.5805C117.978 30.4636 118.415 30.3539 118.904 30.2516C119.392 30.1492 119.917 30.0542 120.457 29.9811C120.996 29.908 121.55 29.8421 122.112 29.791C122.673 29.7398 123.213 29.7179 123.723 29.7179C124.851 29.7007 125.973 29.8915 127.033 30.2808C127.957 30.6235 128.794 31.1678 129.483 31.8745C130.165 32.5765 130.685 33.42 131.006 34.3456C131.369 35.3911 131.547 36.492 131.531 37.5989M127.201 37.7158C127.26 36.5945 126.95 35.4848 126.319 34.5576C126.01 34.1475 125.605 33.821 125.139 33.6078C124.673 33.3946 124.161 33.3014 123.65 33.3367C123.271 33.3367 122.921 33.3513 122.6 33.3806C122.272 33.3806 122.01 33.439 121.798 33.4756V41.1665C122.121 41.3636 122.473 41.5092 122.841 41.5978C123.265 41.7086 123.701 41.7651 124.139 41.766C126.151 41.766 127.157 40.4038 127.157 37.6793" fill="white"/>
<path d="M139.464 29.6811C140.524 29.6525 141.583 29.7957 142.599 30.1051C143.36 30.3424 144.051 30.7643 144.611 31.3333C145.123 31.8819 145.489 32.5506 145.675 33.278C145.894 34.108 145.999 34.9638 145.989 35.8221V44.6682C145.384 44.7997 144.531 44.9606 143.452 45.1434C142.151 45.3372 140.837 45.4276 139.522 45.4138C138.636 45.421 137.751 45.3353 136.883 45.158C136.156 45.0106 135.465 44.7225 134.849 44.3099C134.282 43.9281 133.829 43.4003 133.536 42.782C133.21 42.0545 133.053 41.2619 133.077 40.4645C133.054 39.687 133.238 38.9175 133.609 38.2347C133.948 37.6361 134.432 37.1331 135.016 36.7726C135.644 36.3989 136.329 36.1321 137.043 35.983C137.82 35.8202 138.612 35.7394 139.405 35.7417C139.892 35.7415 140.379 35.7659 140.863 35.8148C141.213 35.8494 141.559 35.9129 141.899 36.0049V35.6028C141.913 35.2822 141.862 34.962 141.749 34.6616C141.637 34.3613 141.464 34.087 141.242 33.8555C140.598 33.3493 139.782 33.1135 138.968 33.1976C138.25 33.1994 137.534 33.2532 136.824 33.3584C136.203 33.4418 135.593 33.5888 135.002 33.7971L134.462 30.3683C134.71 30.2952 135.016 30.2148 135.388 30.1271C135.76 30.0393 136.161 29.9662 136.598 29.9004C137.036 29.8346 137.495 29.7761 137.984 29.725C138.472 29.6738 138.953 29.6592 139.442 29.6592M139.784 42.0875C140.2 42.0875 140.601 42.0875 140.98 42.0875C141.286 42.0804 141.59 42.0511 141.891 41.9997V38.7757C141.639 38.7197 141.383 38.6807 141.126 38.6587C140.814 38.6228 140.5 38.6033 140.185 38.6002C139.807 38.6011 139.43 38.6255 139.055 38.6733C138.735 38.715 138.422 38.8062 138.129 38.9438C137.877 39.0667 137.661 39.2531 137.502 39.4848C137.344 39.7436 137.265 40.0438 137.276 40.3475C137.249 40.6175 137.298 40.8898 137.416 41.1339C137.535 41.3779 137.718 41.584 137.947 41.7292C138.515 42.017 139.149 42.1506 139.784 42.1167" fill="white"/>
<path d="M147.709 50.3858C147.314 50.377 146.92 50.3477 146.528 50.298C146.033 50.2447 145.544 50.1393 145.07 49.9837L145.639 46.5257C145.896 46.6125 146.159 46.6809 146.426 46.7304C146.723 46.7692 147.023 46.7863 147.323 46.7816C147.588 46.8098 147.856 46.7695 148.101 46.6646C148.346 46.5597 148.56 46.3936 148.723 46.1821C149.017 45.6518 149.154 45.0479 149.116 44.4421V30.0619H153.367V44.5518C153.367 46.5354 152.881 47.9976 151.909 48.9382C151.344 49.4497 150.683 49.8426 149.964 50.0937C149.245 50.3448 148.483 50.4491 147.724 50.4004M153.768 25.7339C153.789 26.0758 153.734 26.4182 153.608 26.7366C153.482 27.055 153.288 27.3417 153.039 27.5762C152.551 28.0167 151.916 28.2568 151.26 28.2488C150.601 28.258 149.963 28.0178 149.474 27.5762C149.225 27.3417 149.03 27.055 148.904 26.7366C148.778 26.4182 148.724 26.0758 148.745 25.7339C148.724 25.392 148.778 25.0496 148.904 24.7312C149.03 24.4128 149.225 24.1261 149.474 23.8916C149.963 23.45 150.601 23.2098 151.26 23.219C151.916 23.211 152.551 23.4511 153.039 23.8916C153.288 24.1261 153.482 24.4128 153.608 24.7312C153.734 25.0496 153.789 25.392 153.768 25.7339Z" fill="white"/>
<path d="M162.036 29.6811C163.097 29.652 164.155 29.7952 165.171 30.1051C165.932 30.3424 166.623 30.7643 167.183 31.3333C167.694 31.8833 168.062 32.5512 168.254 33.278C168.47 34.1086 168.575 34.964 168.568 35.8221V44.6682C167.956 44.7997 167.11 44.9606 166.031 45.1434C164.728 45.3369 163.411 45.4273 162.094 45.4138C161.208 45.4206 160.323 45.3349 159.455 45.158C158.728 45.0106 158.037 44.7225 157.421 44.3099C156.856 43.926 156.403 43.3987 156.108 42.782C155.784 42.0538 155.63 41.2613 155.656 40.4645C155.633 39.6879 155.814 38.919 156.181 38.2347C156.522 37.6376 157.005 37.1351 157.588 36.7726C158.216 36.4001 158.901 36.1334 159.615 35.983C160.392 35.8202 161.184 35.7394 161.977 35.7417C162.464 35.7415 162.951 35.7659 163.435 35.8148C163.787 35.8501 164.136 35.9137 164.478 36.0049V35.6028C164.492 35.2822 164.442 34.962 164.329 34.6616C164.216 34.3613 164.043 34.087 163.822 33.8555C163.174 33.3496 162.357 33.1139 161.54 33.1976C160.825 33.1994 160.111 33.2532 159.404 33.3584C158.78 33.441 158.167 33.588 157.574 33.7971L157.034 30.3683C157.282 30.2952 157.588 30.2148 157.96 30.1271C158.332 30.0393 158.733 29.9662 159.17 29.9004C159.608 29.8346 160.074 29.7761 160.556 29.725C161.037 29.6738 161.532 29.6592 162.014 29.6592M162.356 42.0875C162.779 42.0875 163.173 42.0875 163.552 42.0875C163.86 42.0803 164.167 42.051 164.471 41.9997V38.7757C164.216 38.7204 163.958 38.6813 163.698 38.6587C163.386 38.6228 163.072 38.6033 162.757 38.6002C162.382 38.6011 162.007 38.6255 161.635 38.6733C161.311 38.714 160.996 38.8053 160.701 38.9438C160.449 39.0667 160.233 39.2531 160.074 39.4848C159.919 39.745 159.84 40.0442 159.848 40.3475C159.821 40.6175 159.87 40.8898 159.988 41.1339C160.107 41.3779 160.29 41.584 160.519 41.7292C161.087 42.017 161.721 42.1506 162.356 42.1167" fill="white"/>
<path d="M175.946 35.4645C176.362 35.0113 176.799 34.5361 177.244 34.0024C177.689 33.4687 178.119 33.0227 178.542 32.5402L179.723 31.1658L180.67 30.0253H185.723C184.717 31.1877 183.733 32.2917 182.807 33.3517C181.881 34.4118 180.802 35.4938 179.657 36.6123C180.287 37.1899 180.879 37.8077 181.429 38.4619C182.034 39.193 182.624 39.9241 183.193 40.6552C183.762 41.3862 184.287 42.1758 184.761 42.9434C185.234 43.7111 185.635 44.4056 185.956 45.0343H181.079C180.773 44.5372 180.43 43.9889 180.036 43.3821C179.643 42.7753 179.234 42.1831 178.797 41.5763C178.359 40.9695 177.907 40.3993 177.419 39.8437C176.972 39.3362 176.485 38.8667 175.961 38.44V45.0197H171.718V23.5261L175.961 22.8389L175.946 35.4645Z" fill="white"/>
<path d="M158.31 47.856C158.521 47.9707 158.696 48.1431 158.813 48.3532C158.932 48.5782 158.992 48.8297 158.988 49.0843C158.992 49.3388 158.932 49.5903 158.813 49.8153C158.696 50.0277 158.522 50.2026 158.31 50.3198C158.086 50.441 157.835 50.5015 157.581 50.4952C157.387 50.4967 157.195 50.4542 157.02 50.371C156.85 50.294 156.704 50.1728 156.597 50.02V50.466H156.115V46.584H156.611V48.1119C156.724 47.9686 156.869 47.8535 157.034 47.7756C157.207 47.7015 157.393 47.6642 157.581 47.666C157.836 47.6642 158.088 47.7297 158.31 47.856ZM158.033 49.9469C158.172 49.8649 158.285 49.746 158.361 49.6033C158.444 49.4456 158.486 49.2698 158.485 49.0916C158.486 48.9134 158.444 48.7376 158.361 48.5798C158.285 48.4372 158.172 48.3183 158.033 48.2362C157.885 48.1564 157.719 48.1162 157.552 48.1192C157.386 48.1154 157.223 48.1558 157.078 48.2362C156.935 48.3159 156.819 48.4353 156.742 48.5798C156.662 48.7381 156.622 48.9139 156.626 49.0916C156.622 49.2692 156.662 49.445 156.742 49.6033C156.819 49.7479 156.935 49.8672 157.078 49.9469C157.222 50.0296 157.386 50.0725 157.552 50.0712C157.72 50.0718 157.886 50.0289 158.033 49.9469Z" fill="white"/>
<path d="M162.087 47.7021L160.745 50.7507C160.664 50.985 160.52 51.1924 160.33 51.3502C160.164 51.4689 159.964 51.5304 159.761 51.5257C159.627 51.5264 159.494 51.5042 159.367 51.4599C159.248 51.4204 159.138 51.3555 159.046 51.2698L159.265 50.8896C159.33 50.9558 159.407 51.008 159.492 51.0432C159.577 51.0784 159.669 51.0958 159.761 51.0943C159.871 51.0975 159.978 51.0641 160.067 50.9993C160.166 50.9068 160.241 50.7913 160.286 50.663L160.373 50.4729L159.156 47.7021H159.673L160.643 49.8954L161.591 47.7021H162.087Z" fill="white"/>
<path d="M167.445 46.9856C167.682 47.0837 167.883 47.2521 168.021 47.4681C168.161 47.6855 168.233 47.9404 168.225 48.1992C168.232 48.4579 168.161 48.7125 168.021 48.9303C167.879 49.1425 167.679 49.3098 167.445 49.4128C167.165 49.5269 166.865 49.5817 166.563 49.5736H166.038V50.4801H164.806V46.8248H166.563C166.865 46.8131 167.166 46.868 167.445 46.9856ZM166.862 48.5136C166.904 48.473 166.936 48.424 166.958 48.3698C166.979 48.3156 166.989 48.2574 166.986 48.1992C166.988 48.1399 166.979 48.0807 166.957 48.0254C166.936 47.97 166.903 47.9197 166.862 47.8775C166.752 47.7973 166.618 47.7585 166.483 47.7678H166.038V48.6232H166.483C166.618 48.6326 166.752 48.5937 166.862 48.5136Z" fill="white"/>
<path d="M171.229 49.5593H170.901V50.4804H169.669V46.8251H171.426C171.729 46.8164 172.03 46.8738 172.308 46.9932C172.545 47.0913 172.746 47.2597 172.884 47.4757C173.024 47.6931 173.096 47.948 173.088 48.2068C173.094 48.4453 173.033 48.6807 172.913 48.8867C172.79 49.087 172.613 49.249 172.403 49.3546L173.132 50.4877H171.82L171.229 49.5593ZM171.725 47.8778C171.615 47.7976 171.481 47.7588 171.346 47.7681H170.901V48.6235H171.346C171.481 48.6329 171.615 48.594 171.725 48.5138C171.767 48.4733 171.799 48.4243 171.821 48.3701C171.842 48.3159 171.852 48.2577 171.849 48.1995C171.851 48.1402 171.842 48.081 171.82 48.0257C171.799 47.9703 171.767 47.92 171.725 47.8778Z" fill="white"/>
<path d="M174.597 46.8184H175.83V50.4737H174.597V46.8184Z" fill="white"/>
<path d="M181.363 46.8184L179.817 50.4737H178.614L177.069 46.8184H178.388L179.263 48.9531L180.153 46.8184H181.363Z" fill="white"/>
<path d="M184.622 49.1505V50.4811H183.39V49.1359L182.012 46.8184H183.31L184.039 48.0831L184.768 46.8184H185.956L184.622 49.1505Z" fill="white"/>
</g>
<defs>
<clipPath id="clip0_604_77918">
<rect width="186" height="79" fill="white"/>
</clipPath>
</defs>
</svg>
