<svg width="20" height="20" viewBox="0 0 20 20" fill="none" xmlns="http://www.w3.org/2000/svg">
<path d="M19.9997 10.7494V9.25246C19.9997 9.02084 19.9077 8.7987 19.7439 8.63492C19.5801 8.47114 19.358 8.37912 19.1263 8.37912H17.4987C17.3112 8.37889 17.1286 8.31947 16.9769 8.20935C16.8252 8.09923 16.7121 7.94402 16.6538 7.76585C16.5509 7.45546 16.4259 7.1528 16.2799 6.86017C16.1982 6.69561 16.1703 6.50956 16.2 6.32826C16.2297 6.14696 16.3156 5.97957 16.4455 5.84969L17.5996 4.6943C17.6808 4.61331 17.7451 4.51711 17.789 4.41121C17.833 4.30531 17.8556 4.19179 17.8556 4.07714C17.8556 3.9625 17.833 3.84898 17.789 3.74309C17.7451 3.63719 17.6808 3.54099 17.5996 3.45999L16.5426 2.40164C16.4615 2.32046 16.3652 2.25607 16.2592 2.21213C16.1531 2.1682 16.0395 2.14558 15.9248 2.14558C15.81 2.14558 15.6964 2.1682 15.5904 2.21213C15.4844 2.25607 15.3881 2.32046 15.307 2.40164L14.1736 3.53633C14.0424 3.66736 13.8729 3.75336 13.6897 3.78196C13.5065 3.81056 13.3189 3.78028 13.154 3.69547C12.8505 3.53921 12.5356 3.406 12.2121 3.29697C12.0398 3.23858 11.8901 3.12769 11.7841 2.97987C11.678 2.83205 11.621 2.65472 11.6208 2.4728V0.868451C11.6209 0.637053 11.529 0.415113 11.3655 0.251368C11.202 0.0876229 10.9802 -0.00454 10.7488 -0.00488281H9.25185C9.02023 -0.00488281 8.79809 0.0871278 8.63431 0.25091C8.47052 0.414692 8.37852 0.636829 8.37852 0.868451V2.4301C8.37849 2.6143 8.32013 2.79376 8.21182 2.94275C8.10351 3.09174 7.9508 3.2026 7.77559 3.25945C7.43999 3.36749 7.11301 3.5007 6.79745 3.65795C6.63422 3.73982 6.44933 3.76814 6.26907 3.73887C6.08882 3.7096 5.92238 3.62424 5.79344 3.49492L4.69369 2.39517C4.61269 2.31403 4.5165 2.24967 4.4106 2.20575C4.3047 2.16183 4.19118 2.13923 4.07654 2.13923C3.96189 2.13923 3.84837 2.16183 3.74247 2.20575C3.63657 2.24967 3.54037 2.31403 3.45938 2.39517L2.40103 3.45611C2.31989 3.5371 2.25552 3.63331 2.2116 3.7392C2.16769 3.8451 2.14508 3.95862 2.14508 4.07326C2.14508 4.18791 2.16769 4.30143 2.2116 4.40733C2.25552 4.51322 2.31989 4.60943 2.40103 4.69042L3.48655 5.77724C3.61703 5.90686 3.7029 6.07463 3.73174 6.25628C3.76058 6.43793 3.7309 6.62405 3.64698 6.78772C3.48503 7.10767 3.34749 7.4394 3.23555 7.78009C3.178 7.95409 3.06694 8.10546 2.91823 8.21257C2.76952 8.31969 2.59077 8.37708 2.40749 8.37654H0.874311C0.642688 8.37654 0.420547 8.46855 0.256765 8.63233C0.0929832 8.79611 0.000976562 9.01825 0.000976562 9.24987V10.7468C0.00131938 10.9782 0.0934783 11.2 0.257223 11.3635C0.420968 11.527 0.642912 11.6189 0.874311 11.6189H2.41655C2.59944 11.6185 2.77779 11.6758 2.92622 11.7827C3.07465 11.8895 3.18561 12.0405 3.24331 12.214C3.35552 12.5513 3.49305 12.8795 3.65475 13.196C3.73883 13.36 3.76873 13.5464 3.74013 13.7285C3.71153 13.9105 3.62591 14.0788 3.4956 14.2091L2.40103 15.305C2.31989 15.386 2.25552 15.4822 2.2116 15.5881C2.16769 15.694 2.14508 15.8075 2.14508 15.9221C2.14508 16.0368 2.16769 16.1503 2.2116 16.2562C2.25552 16.3621 2.31989 16.4583 2.40103 16.5393L3.45938 17.5977C3.62313 17.7612 3.8451 17.8531 4.07654 17.8531C4.30797 17.8531 4.52994 17.7612 4.69369 17.5977L5.81026 16.4811C5.93926 16.3519 6.10561 16.2665 6.28577 16.237C6.46594 16.2076 6.65082 16.2354 6.81427 16.3168C7.12471 16.4697 7.44602 16.5994 7.77559 16.7049C7.9508 16.7618 8.10351 16.8726 8.21182 17.0216C8.32013 17.1706 8.37849 17.3501 8.37852 17.5343V19.1218C8.37852 19.3534 8.47052 19.5755 8.63431 19.7393C8.79809 19.9031 9.02023 19.9951 9.25185 19.9951H10.7488C10.9802 19.9948 11.202 19.9026 11.3655 19.7389C11.529 19.5751 11.6209 19.3532 11.6208 19.1218V17.5045C11.6204 17.3228 11.6768 17.1456 11.7821 16.9975C11.8875 16.8495 12.0365 16.7382 12.2082 16.679C12.5263 16.5719 12.8363 16.4422 13.1359 16.2909C13.2999 16.2068 13.4863 16.1769 13.6684 16.2055C13.8504 16.2341 14.0187 16.3197 14.149 16.45L15.3018 17.6028C15.4659 17.7661 15.6881 17.8578 15.9196 17.8578C16.1511 17.8578 16.3733 17.7661 16.5374 17.6028L17.5945 16.5445C17.6756 16.4635 17.74 16.3673 17.7839 16.2614C17.8278 16.1555 17.8504 16.042 17.8504 15.9273C17.8504 15.8127 17.8278 15.6992 17.7839 15.5933C17.74 15.4874 17.6756 15.3912 17.5945 15.3102L16.43 14.1457C16.3003 14.0165 16.2147 13.8496 16.1854 13.6688C16.1562 13.4881 16.1847 13.3027 16.267 13.1391C16.4129 12.8465 16.5379 12.5438 16.6409 12.2334C16.6998 12.0562 16.813 11.902 16.9644 11.7926C17.1158 11.6833 17.2977 11.6243 17.4845 11.624H19.1225C19.2376 11.6246 19.3517 11.6023 19.4582 11.5586C19.5647 11.5148 19.6614 11.4505 19.743 11.3692C19.8245 11.2879 19.8892 11.1913 19.9332 11.0849C19.9773 10.9786 19.9998 10.8645 19.9997 10.7494ZM11.6208 13.1132C11.4422 13.2106 11.2552 13.2916 11.0619 13.3552C10.3652 13.584 9.61491 13.5931 8.91287 13.3811C8.72941 13.3246 8.55073 13.2537 8.37852 13.1689C7.69972 12.8332 7.14614 12.2892 6.79875 11.6163C6.71474 11.4556 6.64336 11.2886 6.58526 11.1169C6.34291 10.3865 6.34291 9.59731 6.58526 8.8669C6.64097 8.6975 6.70975 8.53269 6.79099 8.37395C7.11292 7.74499 7.61513 7.22634 8.23341 6.88434C8.85169 6.54234 9.55793 6.39253 10.2618 6.45407C10.9657 6.51561 11.6352 6.7857 12.1848 7.2298C12.7343 7.67391 13.1389 8.27183 13.3468 8.94712C13.4479 9.28285 13.4993 9.63156 13.4995 9.98218C13.4998 10.3397 13.4462 10.6952 13.3403 11.0366C13.2782 11.2369 13.1976 11.4309 13.0997 11.6163C12.7704 12.254 12.2545 12.7762 11.6208 13.1132Z" fill="#868E96"/>
</svg>
